<?xml version="1.0" encoding="UTF-8" standalone="no"?>
<!-- Generator: Adobe Illustrator 24.0.0, SVG Export Plug-In . SVG Version: 6.00 Build 0)  -->

<svg
   xmlns:dc="http://purl.org/dc/elements/1.1/"
   xmlns:cc="http://creativecommons.org/ns#"
   xmlns:rdf="http://www.w3.org/1999/02/22-rdf-syntax-ns#"
   xmlns:svg="http://www.w3.org/2000/svg"
   xmlns="http://www.w3.org/2000/svg"
   xmlns:sodipodi="http://sodipodi.sourceforge.net/DTD/sodipodi-0.dtd"
   xmlns:inkscape="http://www.inkscape.org/namespaces/inkscape"
   version="1.1"
   id="Layer_1"
   x="0px"
   y="0px"
   viewBox="0 0 841.89 595.28"
   style="enable-background:new 0 0 841.89 595.28;"
   xml:space="preserve"
   inkscape:version="0.91 r13725"
   sodipodi:docname="google_scholar_1094619.svg"
   inkscape:export-filename="/Users/toni_brain/Documents/Uni/website/website/images/footer/scholar.png"
   inkscape:export-xdpi="90"
   inkscape:export-ydpi="90"><metadata
     id="metadata21"><rdf:RDF><cc:Work
         rdf:about=""><dc:format>image/svg+xml</dc:format><dc:type
           rdf:resource="http://purl.org/dc/dcmitype/StillImage" /></cc:Work></rdf:RDF></metadata><defs
     id="defs19" /><sodipodi:namedview
     pagecolor="#ffffff"
     bordercolor="#666666"
     borderopacity="1"
     objecttolerance="10"
     gridtolerance="10"
     guidetolerance="10"
     inkscape:pageopacity="0"
     inkscape:pageshadow="2"
     inkscape:window-width="1403"
     inkscape:window-height="803"
     id="namedview17"
     showgrid="false"
     inkscape:zoom="0.36821912"
     inkscape:cx="-218.61982"
     inkscape:cy="297.64001"
     inkscape:window-x="0"
     inkscape:window-y="0"
     inkscape:window-maximized="0"
     inkscape:current-layer="g5" /><style
     type="text/css"
     id="style3">
	.st0{fill:#FFFFFF;}
	.st1{fill:#9A9A9A;}
</style><g
     id="g5"><path
       class="st0"
       d="M666.7,554.8c-163.81,0-327.61,0-491.52,0c0-163.76,0-327.56,0-491.52c163.77,0,327.65,0,491.52,0   C666.7,227.02,666.7,390.89,666.7,554.8z M603.48,314.23c0-47.76,0.01-95.52,0-143.28c0-25.58-15.97-41.59-41.5-41.59   c-94.54-0.01-189.09-0.01-283.63,0c-26.12,0-41.92,15.91-41.92,42.17c0,95.68,0,191.36,0,287.05c0,25.18,16.11,41.34,41.29,41.35   c94.86,0.02,189.73,0.02,284.59,0c25.17-0.01,41.17-16.14,41.17-41.45C603.49,410.4,603.48,362.31,603.48,314.23z"
       id="path7"
       style="fill:none" /><path
       class="st1"
       d="M603.48,314.23c0,48.08,0.01,96.16,0,144.24c-0.01,25.31-16,41.45-41.17,41.45   c-94.86,0.02-189.73,0.02-284.59,0c-25.19,0-41.29-16.16-41.29-41.35c0-95.68,0-191.36,0-287.05c0-26.26,15.81-42.17,41.92-42.17   c94.54-0.01,189.09-0.01,283.63,0c25.53,0,41.5,16,41.5,41.59C603.48,218.71,603.48,266.47,603.48,314.23z M532.72,172.9   c0.79,7.41,0.15,13.75-3.01,19.39c-3.49,6.22-3.58,12.66-3.38,19.44c0.3,10.04,0.12,20.1,0.04,30.15   c-0.14,18.18-0.45,36.36-0.45,54.54c0,2.77,1,5.66,2.06,8.29c1.96,4.86,5.97,6.96,11.06,6.76c5.13-0.2,8.19-3.32,9.57-8.01   c0.9-3.04,1.91-6.24,1.84-9.35c-0.43-18.34-1.15-36.68-1.82-55.02c-0.28-7.79-0.9-15.57-0.93-23.36   c-0.03-6.94,2.47-13.91-0.55-20.79c-1.53-3.5-3.16-7-4.2-10.65c-3.27-11.5-0.82-18.74,8.39-26.02c2.26-1.79,4.47-3.65,7.53-6.15   c-2.09-0.13-2.85-0.21-3.61-0.21c-55.73-0.01-111.45-0.03-167.18,0.1c-2.12,0.01-4.64,1.13-6.28,2.54   c-32.43,27.92-64.75,55.97-97.12,83.96c-0.96,0.83-2.19,1.36-3.31,2c0.24,0.94,0.21,0.82,0.46,1.76l65,0   c-1.07,20.5,4.7,37.72,20.08,51.12c15.33,13.36,33.54,16.4,53.77,14.32c-7.33,15.57-2.85,28.41,7.21,40.68   c-2.29,0.31-3.66,0.48-5.02,0.69c-12.6,1.94-25.33,3.26-37.75,5.99c-17.81,3.92-33.72,11.72-45.46,26.39   c-9.62,12.01-13.8,25.63-10.47,40.75c4.3,19.55,17.54,31.41,35.67,38.05c24.18,8.86,49,9.55,74.02,4.14   c18.87-4.08,36.25-11.2,49.73-25.78c25.85-27.95,23.77-65.3-5.1-89.98c-3.88-3.32-8.07-6.27-11.95-9.59   c-4.96-4.25-10.09-8.39-14.53-13.14c-6.4-6.85-6.72-14.7-1.04-22.2c3.15-4.17,7.03-7.81,10.75-11.52   c3.28-3.27,6.86-6.23,10.18-9.45c13.3-12.91,18.63-28.91,16.53-46.99c-1.03-8.84-4.22-17.42-6.62-26.86   C501.17,197.64,516.57,185.56,532.72,172.9z"
       id="path9"
       style="fill:#333333" /><path
       class="st0"
       d="M532.72,172.5c-16.15,12.66-31.55,24.74-45.91,35.99c2.4,9.44,5.59,18.02,6.62,26.86   c2.1,18.08-3.23,34.08-16.53,46.99c-3.32,3.22-6.9,6.18-10.18,9.45c-3.72,3.71-7.6,7.35-10.75,11.52   c-5.68,7.5-5.36,15.34,1.04,22.2c4.44,4.76,9.57,8.89,14.53,13.14c3.88,3.32,8.07,6.28,11.95,9.59   c28.87,24.68,30.95,62.03,5.1,89.98c-13.49,14.59-30.86,21.7-49.73,25.78c-25.02,5.41-49.84,4.72-74.02-4.14   c-18.13-6.64-31.37-18.5-35.67-38.05c-3.33-15.13,0.86-28.74,10.47-40.75c11.74-14.67,27.65-22.48,45.46-26.39   c12.42-2.73,25.16-4.05,37.75-5.99c1.36-0.21,2.73-0.38,5.02-0.69c-10.06-12.27-14.54-25.11-7.21-40.68   c-20.23,2.08-38.44-0.96-53.77-14.32c-15.38-13.4-21.15-30.62-20.08-51.12c-21.75,0-43.18,0-64.61,0c-0.35-0.55-0.69-1.1-1.04-1.65   c1.18-0.7,2.49-1.24,3.51-2.12c32.37-27.99,64.69-56.04,97.12-83.96c1.64-1.41,4.17-2.54,6.28-2.54   c55.73-0.14,111.45-0.11,167.18-0.1c0.76,0,1.52,0.09,3.61,0.21c-3.06,2.51-5.27,4.36-7.53,6.15c-9.21,7.27-11.66,14.52-8.39,26.02   c1.04,3.65,2.67,7.15,4.2,10.65c3.02,6.89,0.52,13.86,0.55,20.79c0.03,7.79,0.65,15.57,0.93,23.36   c0.66,18.34,1.38,36.67,1.82,55.02c0.07,3.11-0.94,6.31-1.84,9.35c-1.39,4.68-4.44,7.81-9.57,8.01c-5.09,0.2-9.1-1.9-11.06-6.76   c-1.06-2.63-2.06-5.52-2.06-8.29c0-18.18,0.31-36.36,0.45-54.54c0.08-10.05,0.26-20.11-0.04-30.15c-0.2-6.78-0.1-13.22,3.38-19.44   C532.87,186.25,533.51,179.91,532.72,172.5z M431.19,359.13c-19.38,0.25-36.38,4.12-48.63,10.76   c-27.78,15.03-29.65,51.88-2.78,68.58c24.71,15.36,51.46,17.47,78.38,6.25c24.79-10.34,31.28-39,13.57-59.31   c-6.63-7.6-15.16-13.52-22.77-20.28C443.41,360.2,437.18,357.68,431.19,359.13z M461.15,258.1c0.25-0.11,0.51-0.21,0.76-0.32   c-2.14-9.76-3.74-19.69-6.56-29.25c-3.55-12.02-8.98-23.2-18.92-31.56c-20.46-17.21-49.96-7.76-55.22,18.41   c-5.09,25.35,1.57,48.42,17.57,68.57c3.07,3.87,7.54,6.98,11.95,9.36c19.15,10.33,43.31-0.45,48.53-21.53   C460.36,267.34,460.55,262.67,461.15,258.1z"
       id="path11"
       style="fill:none" /><path
       class="st1"
       d="M431.19,359.13c5.99-1.45,12.22,1.07,17.77,6c7.61,6.76,16.14,12.68,22.77,20.28   c17.71,20.3,11.22,48.97-13.57,59.31c-26.92,11.22-53.66,9.11-78.38-6.25c-26.87-16.7-25.01-53.54,2.78-68.58   C394.82,363.26,411.81,359.39,431.19,359.13z"
       id="path13"
       style="fill:#333333" /><path
       class="st1"
       d="M461.15,258.1c-0.61,4.57-0.79,9.24-1.9,13.69c-5.22,21.08-29.37,31.86-48.53,21.53   c-4.41-2.38-8.88-5.49-11.95-9.36c-16-20.15-22.66-43.23-17.57-68.57c5.26-26.17,34.76-35.62,55.22-18.41   c9.93,8.35,15.36,19.54,18.92,31.56c2.83,9.56,4.42,19.49,6.56,29.25C461.66,257.89,461.41,257.99,461.15,258.1z"
       id="path15"
       style="fill:#333333" /></g></svg>